<?xml version="1.0" encoding="UTF-8" standalone="no"?>
<svg
   xmlns:svg="http://www.w3.org/2000/svg"
   xmlns="http://www.w3.org/2000/svg"
   viewBox="0 0 12.7 12.7"
   version="1.1"
   width="48"
   height="48"
   >
  <g transform="translate(0,-284.3)">
    <g
       transform="scale(0.96731425,1.0337902)"
       style="fill:#000000;fill-opacity:1;stroke:none;stroke-width:0.16358817">
      <path
         d="m 6.0020133,280.74713 0.063902,-0.33868 h 0.6070654 l 0.7955753,-4.0897 H 6.8614902 l 0.067097,-0.34188 h 3.9043891 l -0.204485,1.06077 h -0.392995 l 0.127803,-0.66777 H 8.107572 l -0.3099229,1.59754 h 1.6294915 l 0.1150229,-0.59748 h 0.392995 l -0.3067278,1.58476 h -0.392995 l 0.1150229,-0.59748 H 7.7209671 l -0.3993851,2.05124 h 0.7636244 l -0.063902,0.33868 z"
         style="font-style:italic;font-variant:normal;font-weight:normal;font-stretch:normal;font-family:serif;-inkscape-font-specification:'serif Italic';fill:#d3d3d3;fill-opacity:1;stroke-width:0.16358817" />
    </g>
    <g
       style="fill:#000000;fill-opacity:1;stroke:none;stroke-width:0.1888258">
      <path
         d="m 2.9764003,286.71222 h 3.1643075 v 0.62696 H 3.7213771 v 1.62273 h 2.1832985 v 0.62696 H 3.7213771 v 2.62954 H 2.9764003 Z"
         style="fill:#d3d3d3;fill-opacity:1;stroke-width:0.1888258" />
    </g>
    <g
       transform="scale(0.98411229,1.0161442)"
       style="fill:#000000;fill-opacity:1;stroke:none;stroke-width:0.19654997">
      <path
         d="m 6.6566872,288.2304 0.5031679,-2.02053 1.2579199,0.0314 c 0.102206,-0.0865 0.330204,-0.25944 0.495306,-0.36165 0.03931,-0.0943 0.047172,-0.11007 0.07862,-0.22013 -0.330204,0.20441 -0.6053739,0.27517 -1.0456459,0.27517 l -1.053508,-0.008 c -0.8490959,0 -1.3444019,0.11793 -1.7768118,0.43241 -0.440272,0.32235 -0.70758,0.87269 -0.70758,1.44661 0,0.19655 0.023586,0.33021 0.102206,0.60538 l 0.660408,-0.29876 c -0.125792,-0.36951 -0.15724,-0.54248 -0.15724,-0.77834 0,-0.70758 0.4559959,-1.14785 1.1950239,-1.14785 0.094344,0 0.227998,0.008 0.377376,0.0236 l -0.503168,2.02053 -0.283032,0.36165 h 0.188688 l -0.204412,0.84124 c -0.31448,1.25792 -0.503168,1.47805 -1.2500579,1.47805 -0.125792,0 -0.259446,-0.008 -0.526754,-0.0157 l -0.306618,0.51103 c 0.165102,0.0157 0.31448,0.0236 0.3931,0.0236 0.47172,0 0.809786,-0.14151 1.3286779,-0.57392 0.573926,-0.46386 0.7862,-0.80193 0.967026,-1.54882 l 0.188688,-0.75475 c 0.4559959,-0.0236 0.8097859,-0.0472 0.8412339,-0.055 0.220136,-0.0315 0.290894,-0.0708 0.479582,-0.26731 z"
         style="font-style:normal;font-variant:normal;font-weight:normal;font-stretch:normal;font-family:Z003;-inkscape-font-specification:Z003;fill:#d3d3d3;fill-opacity:0.94117647;stroke-width:0.19654997" />
    </g>
  </g>
</svg>
