<?xml version="1.0" standalone="no"?>
<!DOCTYPE svg PUBLIC "-//W3C//DTD SVG 20010904//EN"
 "http://www.w3.org/TR/2001/REC-SVG-20010904/DTD/svg10.dtd">
<svg version="1.0" xmlns="http://www.w3.org/2000/svg"
 width="1024.000000pt" height="1024.000000pt" viewBox="0 0 1024.000000 1024.000000"
 preserveAspectRatio="xMidYMid meet">
<g transform="translate(0.000000,1024.000000) scale(0.100000,-0.100000)"
fill="#000000" stroke="none">
<path d="M3335 9278 c-10 -57 -20 -107 -21 -113 -1 -5 -9 -41 -18 -80 -9 -38
-24 -101 -33 -140 l-18 -70 -367 -3 -368 -2 0 -143 0 -142 321 0 c176 0 323
-3 325 -6 5 -8 -9 -57 -67 -241 l-50 -158 -230 0 -229 0 0 -145 0 -145 176 0
176 0 -6 -25 c-7 -29 -81 -206 -133 -320 -56 -120 -83 -165 -125 -206 l-38
-37 41 -114 c64 -176 53 -159 89 -142 64 32 187 42 543 43 l347 2 0 -616 c0
-381 -4 -623 -10 -635 -15 -28 -50 -32 -302 -31 l-238 0 22 -52 c11 -28 32
-90 46 -137 13 -47 29 -88 34 -91 4 -3 72 -4 150 -3 379 6 499 41 561 165 16
32 30 78 32 105 2 27 4 329 4 672 l1 622 434 0 433 0 1 143 1 142 -435 0 -434
0 0 403 0 402 -306 0 c-270 0 -305 2 -300 15 3 9 31 95 62 193 31 97 62 182
69 187 8 7 259 10 719 10 l706 0 1 27 c0 16 0 48 0 73 0 25 0 77 0 115 l-1 70
-676 0 c-537 0 -675 3 -672 13 16 42 112 436 108 441 -3 3 -21 8 -40 11 -19 3
-80 15 -135 26 -55 10 -107 19 -116 19 -12 0 -20 -24 -34 -102z m313 -1645
l-3 -257 -298 -1 c-164 0 -303 2 -308 5 -5 3 16 64 45 135 29 72 75 185 101
253 l48 122 209 0 208 0 -2 -257z"/>
<path d="M1870 9328 c-23 -85 -129 -396 -180 -523 -107 -270 -209 -489 -297
-643 -87 -152 -135 -213 -194 -247 -15 -9 -14 -16 13 -85 16 -41 38 -104 50
-140 11 -36 22 -67 23 -69 2 -1 25 4 52 13 63 20 195 46 318 62 28 3 52 8 55
9 3 2 35 7 70 10 36 4 68 9 72 11 18 11 4 -16 -74 -140 -247 -396 -434 -638
-526 -682 -24 -11 -32 -21 -28 -32 3 -10 24 -72 47 -138 l42 -122 51 23 c65
28 427 122 656 170 8 2 38 9 65 15 28 6 59 13 70 16 11 2 86 18 166 36 l145
31 0 134 c-1 73 -2 133 -2 133 -1 0 -57 -11 -125 -25 -68 -14 -139 -28 -158
-31 -18 -3 -43 -8 -55 -10 -56 -12 -123 -26 -146 -30 -14 -2 -38 -7 -55 -11
-16 -3 -37 -7 -45 -9 -8 -1 -48 -8 -88 -16 -68 -14 -72 -14 -60 2 238 323 496
737 688 1104 l81 154 -133 75 -132 75 -15 -32 c-79 -173 -203 -416 -213 -417
-7 0 -20 -2 -28 -3 -8 -2 -44 -6 -80 -10 -36 -3 -81 -8 -100 -11 -19 -2 -57
-7 -85 -10 -27 -3 -71 -8 -98 -11 l-47 -6 62 104 c62 105 246 462 285 553 47
110 124 291 132 310 29 64 123 327 119 330 -3 2 -258 115 -275 122 -7 3 -16
-12 -23 -39z"/>
<path d="M5712 8910 c-1 -147 0 -150 21 -151 12 0 663 -1 1445 -1 l1424 -1 -7
-426 c-22 -1489 -55 -2056 -135 -2314 -25 -82 -77 -143 -133 -158 -56 -15
-460 -12 -689 5 l-59 5 19 -33 c25 -42 63 -142 69 -181 9 -63 12 -78 16 -82 7
-6 255 -16 423 -16 324 0 429 27 535 136 58 59 121 182 138 267 29 145 39 206
46 275 7 75 13 137 20 195 3 25 7 88 10 140 3 52 7 131 10 175 20 342 39 1110
50 2008 l4 307 -1604 0 -1603 0 0 -150z"/>
<path d="M6287 8310 l-102 -101 25 -17 c77 -54 487 -363 610 -461 170 -136
158 -126 330 -280 l135 -120 40 43 c141 152 175 190 175 196 0 10 -165 152
-285 245 -216 168 -747 554 -807 586 -15 8 -36 -8 -121 -91z"/>
<path d="M8015 7200 c-60 -21 -220 -76 -355 -123 -135 -47 -252 -87 -260 -90
-165 -62 -1688 -557 -1715 -557 -6 0 -16 -4 -24 -9 -11 -7 -4 -36 40 -160 30
-83 59 -151 65 -151 6 0 143 45 305 101 162 55 377 129 479 164 102 35 304
105 450 155 146 51 328 114 405 140 131 45 307 107 654 229 79 28 145 52 146
53 2 2 -5 44 -16 93 -10 50 -23 114 -29 143 -7 28 -17 52 -23 51 -7 0 -61 -18
-122 -39z"/>
<path d="M2933 6748 c-51 -112 -130 -264 -164 -316 -16 -24 -29 -45 -29 -48 0
-7 -96 -148 -159 -234 -55 -75 -176 -218 -196 -233 -11 -8 -7 -11 125 -121
l84 -69 48 54 c27 30 81 97 121 149 39 52 75 97 78 100 8 7 144 216 204 315
70 115 216 403 207 408 -8 5 -265 77 -275 77 -4 0 -23 -37 -44 -82z"/>
<path d="M4470 6817 c-14 -6 -59 -26 -100 -45 -41 -19 -85 -38 -98 -43 l-22
-9 38 -62 c39 -64 166 -287 235 -413 21 -38 83 -160 138 -270 55 -110 103
-201 107 -203 5 -1 40 14 78 34 38 20 95 49 126 65 l58 29 -42 78 c-37 71
-134 248 -181 332 -65 116 -307 521 -310 519 -1 0 -13 -5 -27 -12z"/>
<path d="M2315 6478 c-61 -22 -164 -59 -230 -83 -66 -23 -176 -63 -245 -88
-149 -54 -398 -143 -530 -188 -52 -18 -97 -34 -99 -35 -3 -3 42 -199 65 -286
6 -19 20 -16 124 30 14 7 205 86 425 177 220 91 418 174 440 184 22 10 77 33
123 52 54 22 82 38 82 48 -1 9 -11 64 -23 122 l-22 106 -110 -39z"/>
<path d="M2853 4676 c-3 -5 -5 -172 -5 -371 1 -278 -2 -364 -11 -367 -7 -2
-346 -3 -754 -3 l-743 1 0 -997 0 -997 153 0 153 -1 1 122 c1 67 2 127 2 132
1 7 200 9 579 8 317 0 587 -2 599 -2 l22 -1 0 -637 c0 -351 0 -657 1 -680 l0
-43 160 0 160 0 0 679 0 679 23 3 c12 2 283 4 602 3 l580 0 1 -100 c1 -54 2
-108 3 -120 1 -20 6 -21 159 -20 l157 1 0 986 1 985 -763 0 -763 -1 0 375 0
375 -156 0 c-86 0 -158 -4 -161 -9z m-5 -1606 l-1 -560 -599 0 c-471 0 -598 3
-599 13 -3 42 -4 1084 -1 1095 3 9 133 12 603 12 l598 0 -1 -560z m1528 0 l0
-560 -603 0 -603 0 0 560 0 560 603 0 603 0 0 -560z"/>
<path d="M7067 4678 c-9 -5 -12 -97 -12 -357 l1 -351 -855 -2 -854 -3 1 -130
c0 -71 1 -139 1 -151 1 -21 3 -21 294 -20 160 1 299 0 307 -2 9 -2 31 -45 54
-105 33 -87 68 -172 144 -347 61 -142 201 -406 300 -565 72 -117 251 -376 272
-395 3 -3 34 -40 69 -84 35 -43 89 -105 119 -138 31 -33 51 -62 46 -67 -34
-30 -164 -128 -244 -183 -292 -201 -594 -352 -1070 -534 -19 -7 -104 -35 -188
-61 l-152 -49 45 -59 c25 -33 49 -65 54 -71 6 -7 29 -46 52 -88 24 -42 46 -76
49 -76 31 0 589 211 657 249 10 6 81 41 159 79 303 149 579 324 812 515 72 59
74 59 92 40 10 -11 40 -38 67 -59 26 -21 50 -42 53 -45 3 -3 50 -39 105 -81
339 -255 714 -450 1139 -593 235 -78 350 -109 354 -95 8 24 116 176 164 233
28 32 49 59 47 61 -2 2 -35 11 -74 20 -331 79 -712 228 -1026 401 -95 52 -379
236 -439 283 -14 11 -52 42 -86 69 -34 26 -62 52 -63 56 -1 5 35 49 81 99 364
396 680 927 888 1493 19 50 35 92 37 94 2 3 148 5 325 5 l322 1 0 150 0 150
-872 3 -872 2 0 355 c0 195 -3 355 -7 356 -33 5 -287 3 -296 -3z m1029 -1020
c18 -19 -187 -479 -314 -703 -43 -76 -213 -338 -246 -380 -118 -149 -197 -243
-254 -305 l-70 -75 -61 65 c-170 180 -375 458 -509 690 -106 183 -292 574
-292 613 0 7 -4 17 -9 23 -4 5 -13 23 -19 41 -10 29 -9 32 11 35 43 6 1757 2
1763 -4z"/>
</g>
</svg>
